<svg xmlns="http://www.w3.org/2000/svg" viewBox="0 0 1620 427.47"><defs><style>.cls-1{fill:#0ba360;}</style></defs><title>amdigital-empresa-de-diseño-web-en-arequipa</title><g id="Capa_2" data-name="Capa 2"><g id="Capa_1-2" data-name="Capa 1"><path class="cls-1" d="M129.23,168.08q-19.44,0-32.07,12.79T84.53,213.75q0,20.08,12.63,32.88t32.07,12.79q19.43,0,32.23-12.79t12.79-32.88q0-20.08-12.79-32.88T129.23,168.08Z"/><path class="cls-1" d="M604.1,76.68,48.4.44C21.78-3.21,0,16.41,0,44V383.43c0,27.63,21.78,47.25,48.4,43.6l555.7-76.24c20.41-2.8,37.1-22.42,37.1-43.61V120.28C641.2,99.1,624.51,79.48,604.1,76.68ZM216,294.72H174.25V275.61q-18.78,23.65-52.8,23.65-32.39,0-55.54-24.78T42.75,213.75q0-36,23.16-60.73t55.54-24.78q34,0,52.8,23.65V132.77H216Zm278.23,0H452.48V197.88q0-14.58-7.13-22.67t-20.08-8.1q-14.26,0-22.19,9.39t-7.93,27.21v91H353.36V197.88q0-14.58-7.12-22.67t-20.08-8.1q-13.94,0-22.19,9.39t-8.26,27.21v91H253.93v-162h41.78v17.17q14.58-21.69,45-21.7,29.79,0,44,23.32Q401,128.23,433,128.24q27.85,0,44.54,18.14T494.26,195Zm79.35-3.88a27.37,27.37,0,1,1,8.1-19.44A26.54,26.54,0,0,1,573.61,290.84Z"/><path class="cls-1" d="M815.45,68.68h41.78V295.41H815.45V276.3Q797,300,763,300q-32.73,0-55.87-24.78T684,214.44q0-36,23.16-60.73T763,128.93q34,0,52.47,23.64ZM738.52,247.31q12.79,12.8,32.23,12.8t32.07-12.8q12.63-12.8,12.63-32.87t-12.63-32.88q-12.63-12.8-32.07-12.79t-32.23,12.79q-12.79,12.8-12.79,32.88T738.52,247.31Z"/><path class="cls-1" d="M916.18,114a26,26,0,0,1-25.59-25.59A25.13,25.13,0,0,1,898.2,70.3a24.32,24.32,0,0,1,18-7.77,24.72,24.72,0,0,1,18.3,7.77,25.13,25.13,0,0,1,7.61,18.14,24.6,24.6,0,0,1-7.61,18A25,25,0,0,1,916.18,114ZM895.45,295.41v-162h41.78v162Z"/><path class="cls-1" d="M1099.5,133.46h40.81V287.64q0,37.56-24.77,57.33t-59.76,19.76q-26.23,0-46.16-10.05A70.17,70.17,0,0,1,979,325.21l35.63-20.41q12.31,22.68,42.43,22.68,19.76,0,31.1-10.37t11.33-29.47V270.15q-18.46,24.62-51.82,24.61-34.34,0-57.49-24.13T967,211.84q0-34.32,23.32-58.62t57.33-24.29q33.36,0,51.82,24.61Zm-77.89,110.29q12.78,12.47,32.55,12.47t32.55-12.47q12.8-12.47,12.79-31.91,0-19.09-12.79-31.57t-32.55-12.47q-19.77,0-32.55,12.47t-12.8,31.57Q1008.81,231.28,1021.61,243.75Z"/><path class="cls-1" d="M1198.94,114a26,26,0,0,1-25.59-25.59A25.09,25.09,0,0,1,1181,70.3a24.32,24.32,0,0,1,18-7.77,24.72,24.72,0,0,1,18.3,7.77,25.13,25.13,0,0,1,7.61,18.14,24.6,24.6,0,0,1-7.61,18A25,25,0,0,1,1198.94,114Zm-20.73,181.38v-162H1220v162Z"/><path class="cls-1" d="M1350.84,173.63h-36.6V241q0,8.42,4.21,12.3c2.81,2.6,6.91,4.05,12.31,4.38a180.55,180.55,0,0,0,20.08-.17v37.9q-43.08,4.86-60.73-8.1T1272.46,241V173.63h-28.18V133.46h28.18V100.75l41.78-12.63v45.34h36.6Z"/><path class="cls-1" d="M1498.54,133.46h41.78v162h-41.78V276.3Q1479.76,300,1445.75,300q-32.4,0-55.55-24.78T1367,214.44q0-36,23.16-60.73t55.55-24.78q34,0,52.79,23.64Zm-77.09,113.85q12.63,12.8,32.07,12.8t32.23-12.8q12.78-12.8,12.79-32.87t-12.79-32.88q-12.81-12.8-32.23-12.79t-32.07,12.79q-12.63,12.8-12.63,32.88T1421.45,247.31Z"/><path class="cls-1" d="M1578.22,295.41V59H1620V295.41Z"/></g></g></svg>